<?xml version="1.0" encoding="iso-8859-1"?>
<!-- Generator: Adobe Illustrator 16.0.0, SVG Export Plug-In . SVG Version: 6.00 Build 0)  -->
<!DOCTYPE svg PUBLIC "-//W3C//DTD SVG 1.1//EN" "http://www.w3.org/Graphics/SVG/1.1/DTD/svg11.dtd">
<svg version="1.1" id="Capa_1" xmlns="http://www.w3.org/2000/svg" xmlns:xlink="http://www.w3.org/1999/xlink" x="0px" y="0px"
	 width="338.472px" height="338.472px" viewBox="0 0 338.472 338.472" style="enable-background:new 0 0 338.472 338.472;"
	 xml:space="preserve">
<g>
	<g>
		<path d="M215.608,141.043c31.85,0,57.67,25.818,57.67,57.664c0,31.844-25.82,57.664-57.67,57.664
			c-31.843,0-57.661-25.82-57.661-57.664C157.947,166.861,183.765,141.043,215.608,141.043z"/>
		<path d="M320.026,73.331h-13.265c-10.185,0-22.698-7.077-27.935-15.813l-3.579-5.972c-5.248-8.737-17.756-15.814-27.934-15.814
			h-64.647c-10.19,0-23.029,6.867-28.686,15.348l-4.611,6.906c-5.651,8.479-18.495,15.345-28.685,15.345H86.127
			c-10.187,0-18.447-4.206-18.447-9.4c0-5.191-8.257-9.397-18.447-9.397H34.435c-10.19,0-18.447,4.215-18.447,9.397
			c0,5.194-3.579,9.4-7.995,9.4C3.579,73.331,0,81.59,0,91.777v192.516c0,10.19,8.257,18.447,18.447,18.447h301.579
			c10.189,0,18.446-8.257,18.446-18.447V91.777C338.472,81.59,330.215,73.331,320.026,73.331z M49.233,124.417H38.491
			c-10.187,0-18.446-7.022-18.446-15.673c0-8.652,8.259-15.675,18.446-15.675h10.743c10.19,0,18.447,7.023,18.447,15.675
			C67.68,117.394,59.423,124.417,49.233,124.417z M215.608,283.952c-47.077,0-85.244-38.16-85.244-85.244
			c0-47.083,38.167-85.25,85.244-85.25c47.09,0,85.257,38.167,85.257,85.25C300.865,245.792,262.698,283.952,215.608,283.952z
			 M306.509,119.412c-7.272,0-13.169-5.903-13.169-13.178s5.896-13.172,13.169-13.172c7.277,0,13.174,5.897,13.174,13.172
			S313.775,119.412,306.509,119.412z"/>
	</g>
</g>
<g>
</g>
<g>
</g>
<g>
</g>
<g>
</g>
<g>
</g>
<g>
</g>
<g>
</g>
<g>
</g>
<g>
</g>
<g>
</g>
<g>
</g>
<g>
</g>
<g>
</g>
<g>
</g>
<g>
</g>
</svg>
